<?xml version="1.0" standalone="no"?>
<svg xmlns="http://www.w3.org/2000/svg" viewBox="0 0 319.4 29" width="319.4" height="29"><path fill="#0466b2" fill-rule="nonzero" d="M3.11 6L3.11 15.95Q2.54 15.88 0.94 15.88L0.94 15.88L0 15.88L0 0.25Q0.75 0.29 1.65 0.29Q2.55 0.29 2.93 0.20L2.93 0.20L6.87 6.89L10.65 0.20Q11.03 0.29 12.08 0.29Q13.14 0.29 13.89 0.25L13.89 0.25L13.89 15.88L12.95 15.88Q11.34 15.88 10.78 15.95L10.78 15.95L10.78 5.45L6.95 12.30L3.11 6ZM20.21 12.50L19.11 15.97Q18.11 15.88 16.76 15.88L16.76 15.88L15.83 15.88L20.93 1.59Q21.27 0.63 21.27 0.47Q21.27 0.32 21.26 0.28L21.26 0.28L21.27 0.26Q22.03 0.29 22.89 0.29L22.89 0.29Q23.59 0.29 24.57 0.27L24.57 0.27L24.59 0.29Q24.56 0.34 24.56 0.42L24.56 0.42Q24.56 0.64 24.91 1.61L24.91 1.61L30.12 15.91Q29.88 15.90 29.57 15.90L29.57 15.90Q29.57 15.90 28.96 15.88L28.96 15.88Q28.66 15.88 28.43 15.88L28.43 15.88L26.61 15.88L25.51 12.50L20.21 12.50ZM21.11 9.69L24.60 9.69L22.83 4.24L21.11 9.69ZM34.99 11.13L34.99 15.95Q34.18 15.88 32.93 15.88L32.93 15.88L32.00 15.88L32.00 0.25L32.47 0.27Q32.96 0.29 33.21 0.29L33.21 0.29L33.55 0.29Q34.58 0.29 34.99 0.20L34.99 0.20L34.99 6.82L39.74 0.25Q40.49 0.29 41.00 0.29L41.00 0.29L41.65 0.29Q42.86 0.29 43.37 0.20L43.37 0.20L38.85 6.11L43.30 14.94Q43.58 15.59 43.83 15.88L43.83 15.88L43.11 15.88Q40.64 15.88 40.03 15.97L40.03 15.97Q39.90 15.19 39.68 14.60L39.68 14.60L36.69 8.91L34.99 11.13ZM54.30 15.88L54.30 0.25Q55.48 0.29 55.72 0.29L55.72 0.29L56.57 0.29Q57.19 0.29 57.56 0.20L57.56 0.20L57.55 15.88L54.30 15.88ZM64.75 7.69L64.75 14.38Q64.75 15.41 64.84 15.88L64.84 15.88L61.90 15.88L61.90 3.63L64.75 3.63L64.75 4.68Q66.29 3.40 68.05 3.40L68.05 3.40Q69.97 3.40 71.12 4.71Q72.27 6.01 72.27 8.14L72.27 8.14L72.27 12.81Q72.27 14.79 72.33 15.19Q72.39 15.59 72.49 15.70Q72.59 15.82 72.66 15.91L72.66 15.91L72.63 15.96Q71.68 15.88 71.25 15.88L71.25 15.88L70.43 15.88Q70.05 15.88 69.42 15.91L69.42 15.91L69.42 9.53Q69.42 6.09 67.34 6.09L67.34 6.09Q65.79 6.09 64.75 7.69L64.75 7.69ZM79.82 16.05L79.82 16.05Q76.51 16.05 74.84 14.85L74.84 14.85Q74.86 14.50 74.91 14.05L74.91 14.05L75.01 13.21Q75.11 12.38 75.13 12.17Q75.15 11.96 75.16 11.95Q75.18 11.93 75.35 12.13Q75.53 12.34 76.02 12.63Q76.51 12.93 77.16 13.15L77.16 13.15Q78.55 13.63 80.06 13.63L80.06 13.63Q82.09 13.63 82.09 12.28L82.09 12.28Q82.09 11.85 81.70 11.64L81.70 11.64Q81.01 11.29 79.67 11.10Q78.33 10.92 77.47 10.57Q76.62 10.22 76.08 9.73L76.08 9.73Q75.08 8.80 75.08 7.30L75.08 7.30Q75.08 5.47 76.49 4.43L76.49 4.43Q77.88 3.40 80.34 3.40L80.34 3.40Q82.78 3.40 84.50 4.78L84.50 4.78Q84.42 5.09 84.33 5.37L84.33 5.37Q84.06 6.14 83.93 6.48L83.93 6.48L83.66 7.17Q83.64 7.27 83.63 7.27L83.63 7.27Q83.60 7.27 83.44 7.02L83.44 7.02Q82.70 6.16 81.14 5.89L81.14 5.89Q80.66 5.80 80.16 5.80L80.16 5.80Q78.02 5.80 78.02 7.09L78.02 7.09Q78.02 7.54 78.47 7.77L78.47 7.77Q79.30 8.21 80.75 8.43Q82.20 8.64 82.95 8.99Q83.70 9.35 84.15 9.86L84.15 9.86Q85.00 10.77 85.00 12.28L85.00 12.28Q85.00 13.93 83.67 14.96L83.67 14.96Q82.29 16.05 79.82 16.05ZM95.05 15.88L95.05 14.81Q93.55 16.05 91.78 16.05L91.78 16.05Q89.88 16.05 88.80 14.78L88.80 14.78Q87.77 13.54 87.77 11.37L87.77 11.37L87.77 6.71Q87.77 4.37 87.67 4.03Q87.57 3.68 87.53 3.59L87.53 3.59Q88.07 3.63 88.65 3.63L88.65 3.63L89.63 3.63Q90.01 3.63 90.64 3.60L90.64 3.60L90.64 10.38Q90.64 12.80 91.96 13.18L91.96 13.18Q92.36 13.30 92.82 13.30L92.82 13.30Q94.21 13.30 95.05 12.29L95.05 12.29L95.05 3.63L97.96 3.63L97.96 14.38Q97.96 15.41 98.05 15.88L98.05 15.88L95.05 15.88ZM104.46 7.35L104.46 14.57Q104.46 15.57 104.51 15.88L104.51 15.88L101.59 15.88L101.59 3.63L104.46 3.63L104.46 4.54Q105.46 3.40 106.55 3.40Q107.65 3.40 108.28 3.67L108.28 3.67L108.07 6.82L108.02 6.86Q107.61 6.13 106.32 6.13L106.32 6.13Q105.83 6.13 105.32 6.46Q104.81 6.80 104.46 7.35L104.46 7.35ZM117.80 15.15L117.80 15.15Q116.13 16.05 114.79 16.05Q113.44 16.05 112.48 15.80Q111.52 15.55 110.85 15.06L110.85 15.06Q109.49 14.06 109.49 12.18L109.49 12.18Q109.49 10.49 111.15 9.36L111.15 9.36Q112.96 8.14 116.05 8.14L116.05 8.14L116.52 8.16Q116.66 8.17 116.84 8.17Q117.01 8.18 117.15 8.20L117.15 8.20Q117.06 6.33 115.54 6.01L115.54 6.01Q115.03 5.91 114.46 5.91Q113.89 5.91 113.35 6.01Q112.80 6.11 112.29 6.27L112.29 6.27Q111.15 6.63 110.66 7.10L110.66 7.10L110.63 7.08L110.27 4.49Q112.35 3.40 114.81 3.40L114.81 3.40Q118.63 3.40 119.70 6.15L119.70 6.15Q120.04 7.03 120.04 8.13L120.04 8.13L120.04 12.38Q120.04 13.73 121.00 14.23L121.00 14.23L118.88 16.17Q118.21 15.82 117.80 15.15ZM117.16 12.76L117.16 10.31Q116.85 10.25 116.51 10.25L116.51 10.25L116.04 10.25Q113.45 10.25 112.75 11.40L112.75 11.40Q112.54 11.74 112.54 12.12Q112.54 12.49 112.67 12.78Q112.80 13.07 113.12 13.25L113.12 13.25Q113.73 13.61 114.93 13.61Q116.13 13.61 117.18 13.03L117.18 13.03Q117.16 12.90 117.16 12.76L117.16 12.76ZM126.77 7.69L126.77 14.38Q126.77 15.41 126.87 15.88L126.87 15.88L123.93 15.88L123.93 3.63L126.77 3.63L126.77 4.68Q128.32 3.40 130.08 3.40L130.08 3.40Q132 3.40 133.15 4.71Q134.30 6.01 134.30 8.14L134.30 8.14L134.30 12.81Q134.30 14.79 134.36 15.19Q134.41 15.59 134.51 15.70Q134.61 15.82 134.68 15.91L134.68 15.91L134.66 15.96Q133.71 15.88 133.28 15.88L133.28 15.88L132.46 15.88Q132.08 15.88 131.45 15.91L131.45 15.91L131.45 9.53Q131.45 6.09 129.36 6.09L129.36 6.09Q127.82 6.09 126.77 7.69L126.77 7.69ZM147.02 11.88L147.29 14.74Q145.98 16.05 143.18 16.05L143.18 16.05Q140.46 16.05 138.74 14.40L138.74 14.40Q136.99 12.73 136.99 9.95L136.99 9.95Q136.99 7.13 138.71 5.31L138.71 5.31Q140.54 3.40 143.60 3.40L143.60 3.40Q145.77 3.40 147.23 4.35L147.23 4.35L146.77 7.35L146.68 7.34Q146.12 6.66 145.50 6.45L145.50 6.45Q144.49 6.09 143.48 6.09Q142.48 6.09 141.90 6.35Q141.33 6.61 140.92 7.07L140.92 7.07Q140.10 8.00 140.10 9.55L140.10 9.55Q140.10 12.29 142.00 13.14L142.00 13.14Q142.65 13.42 143.38 13.42Q144.12 13.42 144.66 13.29Q145.21 13.16 145.65 12.94L145.65 12.94Q146.60 12.47 146.94 11.85L146.94 11.85L147.02 11.88ZM149.16 9.86L149.16 9.86Q149.16 8.48 149.63 7.31Q150.09 6.14 150.95 5.26L150.95 5.26Q152.78 3.40 155.73 3.40L155.73 3.40Q158.23 3.40 159.74 5.05L159.74 5.05Q161.23 6.64 161.23 9.06L161.23 9.06Q161.23 9.98 161.09 10.32L161.09 10.32Q159.91 10.65 156.32 10.65L156.32 10.65L152.19 10.65Q152.50 11.91 153.61 12.60Q154.72 13.30 156.50 13.30L156.50 13.30Q158.37 13.30 159.70 12.63L159.70 12.63Q160.05 12.46 160.23 12.30L160.23 12.30Q160.21 12.80 160.17 13.31L160.17 13.31L160.04 15.14Q159.15 15.75 157.16 15.98L157.16 15.98Q156.57 16.05 156.04 16.05L156.04 16.05Q153.06 16.05 151.11 14.32L151.11 14.32Q149.16 12.57 149.16 9.86ZM158.11 8.38L158.11 8.38Q157.63 5.86 155.37 5.86L155.37 5.86Q153.59 5.86 152.66 7.39L152.66 7.39Q152.38 7.86 152.23 8.43L152.23 8.43Q152.51 8.44 152.92 8.45L152.92 8.45L153.79 8.45Q154.22 8.46 154.62 8.46L154.62 8.46L155.29 8.46Q155.88 8.46 156.46 8.45L156.46 8.45L157.42 8.41Q157.80 8.40 158.11 8.38ZM179.00 0L179.00 0Q181.20 0 182.74 0.76L182.74 0.76L182.74 4.35L182.72 4.37Q182.06 3.36 179.95 3.04L179.95 3.04Q179.33 2.93 178.38 2.93Q177.43 2.93 176.52 3.29Q175.61 3.64 175.02 4.30L175.02 4.30Q173.88 5.58 173.88 7.95L173.88 7.95Q173.88 10.70 175.32 12.05L175.32 12.05Q176.52 13.17 178.49 13.17L178.49 13.17Q180.71 13.17 182.10 12.22L182.10 12.22Q182.60 11.88 182.95 11.38L182.95 11.38L182.99 11.40L182.99 14.68Q181.20 16.17 178.16 16.17L178.16 16.17Q174.59 16.17 172.56 13.90L172.56 13.90Q170.61 11.73 170.61 8.16L170.61 8.16Q170.61 4.37 172.75 2.19L172.75 2.19Q174.90 0 179.00 0ZM184.76 9.82L184.76 9.82Q184.76 8.53 185.20 7.35Q185.64 6.18 186.46 5.30L186.46 5.30Q188.25 3.40 191.11 3.40L191.11 3.40Q193.96 3.40 195.63 5.19L195.63 5.19Q197.24 6.90 197.24 9.63L197.24 9.63Q197.24 12.36 195.59 14.16L195.59 14.16Q193.84 16.05 190.96 16.05L190.96 16.05Q187.98 16.05 186.29 14.19L186.29 14.19Q184.76 12.49 184.76 9.82ZM187.61 9.75L187.61 9.75Q187.61 10.49 187.85 11.18Q188.10 11.87 188.55 12.36L188.55 12.36Q189.53 13.43 191.11 13.43L191.11 13.43Q192.57 13.43 193.42 12.39L193.42 12.39Q194.24 11.38 194.24 9.76L194.24 9.76Q194.24 8.12 193.39 7.11L193.39 7.11Q192.49 6.04 190.92 6.04L190.92 6.04Q189.33 6.04 188.43 7.18L188.43 7.18Q187.61 8.24 187.61 9.75ZM202.84 7.64L202.84 12.49Q202.84 15.13 202.93 15.88L202.93 15.88L199.88 15.88L199.88 3.63L202.84 3.63L202.84 4.69Q204.45 3.40 206.13 3.40L206.13 3.40Q208.13 3.40 209.03 5.12L209.03 5.12Q209.93 4.20 210.53 3.90L210.53 3.90Q211.52 3.40 212.53 3.40Q213.53 3.40 214.23 3.74Q214.93 4.08 215.39 4.70L215.39 4.70Q216.32 5.95 216.32 8.14L216.32 8.14L216.32 12.81Q216.32 14.79 216.38 15.19Q216.43 15.59 216.53 15.70Q216.63 15.82 216.70 15.91L216.70 15.91L216.68 15.96Q215.74 15.88 215.30 15.88L215.30 15.88L214.42 15.88Q213.98 15.88 213.35 15.91L213.35 15.91L213.35 9.57Q213.35 6.83 212.51 6.32L212.51 6.32Q212.23 6.15 211.85 6.15Q211.46 6.15 211.17 6.24Q210.88 6.33 210.62 6.53L210.62 6.53Q210.19 6.84 209.64 7.77L209.64 7.77Q209.65 7.86 209.65 7.96Q209.65 8.05 209.65 11.05Q209.65 14.05 209.79 15.88L209.79 15.88Q208.79 15.88 208.10 15.88Q207.40 15.88 206.77 15.91L206.77 15.91L206.77 9.56Q206.77 7.65 206.54 7.08Q206.31 6.50 206.05 6.33Q205.79 6.15 205.42 6.15L205.42 6.15Q203.87 6.15 202.84 7.64L202.84 7.64ZM222.76 15.63L222.76 15.63L222.76 19.08Q222.76 20.09 222.81 20.39L222.81 20.39L219.89 20.39L219.89 3.63L222.76 3.63L222.76 4.39Q224.18 3.40 225.48 3.40Q226.78 3.40 227.79 3.76Q228.80 4.13 229.56 4.89L229.56 4.89Q231.23 6.54 231.23 9.60L231.23 9.60Q231.23 11.63 230.29 13.22L230.29 13.22Q229.48 14.57 228.05 15.38L228.05 15.38Q226.78 16.09 225.30 16.09Q223.83 16.09 222.76 15.63ZM222.76 7.03L222.76 12.68Q223.65 13.43 225.07 13.43L225.07 13.43Q227.39 13.43 228.07 11.19L228.07 11.19Q228.30 10.43 228.30 9.56Q228.30 8.68 228.14 8.16Q227.98 7.64 227.71 7.26Q227.45 6.88 227.12 6.63Q226.79 6.38 226.45 6.22L226.45 6.22Q225.86 5.95 225.22 5.95Q224.59 5.95 223.91 6.25Q223.23 6.54 222.76 7.03L222.76 7.03ZM241.78 15.15L241.78 15.15Q240.12 16.05 238.77 16.05Q237.42 16.05 236.46 15.80Q235.50 15.55 234.83 15.06L234.83 15.06Q233.47 14.06 233.47 12.18L233.47 12.18Q233.47 10.49 235.14 9.36L235.14 9.36Q236.94 8.14 240.04 8.14L240.04 8.14L240.50 8.16Q240.64 8.17 240.82 8.17Q241.00 8.18 241.14 8.20L241.14 8.20Q241.04 6.33 239.52 6.01L239.52 6.01Q239.02 5.91 238.45 5.91Q237.88 5.91 237.33 6.01Q236.79 6.11 236.27 6.27L236.27 6.27Q235.14 6.63 234.64 7.10L234.64 7.10L234.61 7.08L234.26 4.49Q236.33 3.40 238.79 3.40L238.79 3.40Q242.61 3.40 243.68 6.15L243.68 6.15Q244.02 7.03 244.02 8.13L244.02 8.13L244.02 12.38Q244.02 13.73 244.98 14.23L244.98 14.23L242.86 16.17Q242.19 15.82 241.78 15.15ZM241.15 12.76L241.15 10.31Q240.83 10.25 240.49 10.25L240.49 10.25L240.02 10.25Q237.43 10.25 236.73 11.40L236.73 11.40Q236.52 11.74 236.52 12.12Q236.52 12.49 236.65 12.78Q236.79 13.07 237.11 13.25L237.11 13.25Q237.71 13.61 238.92 13.61Q240.12 13.61 241.16 13.03L241.16 13.03Q241.15 12.90 241.15 12.76L241.15 12.76ZM250.76 7.69L250.76 14.38Q250.76 15.41 250.85 15.88L250.85 15.88L247.91 15.88L247.91 3.63L250.76 3.63L250.76 4.68Q252.30 3.40 254.06 3.40L254.06 3.40Q255.98 3.40 257.13 4.71Q258.28 6.01 258.28 8.14L258.28 8.14L258.28 12.81Q258.28 14.79 258.34 15.19Q258.40 15.59 258.50 15.70Q258.60 15.82 258.67 15.91L258.67 15.91L258.64 15.96Q257.70 15.88 257.26 15.88L257.26 15.88L256.44 15.88Q256.07 15.88 255.43 15.91L255.43 15.91L255.43 9.53Q255.43 6.09 253.35 6.09L253.35 6.09Q251.80 6.09 250.76 7.69L250.76 7.69ZM263.60 21.01L260.58 19.96L261.35 19.34Q263.10 17.92 264.25 15.15L264.25 15.15L264.79 13.85L260.30 3.63L263.58 3.63L266.39 10.71L269.00 3.63L272.38 3.63Q271.77 4.48 270.89 6.77L270.89 6.77L269.13 11.12Q265.61 19.42 263.60 21.01L263.60 21.01Z" transform="translate(0, 3.995)"></path><line x1="281.37890625" y1="2%" x2="281.37890625" y2="98%" stroke="#0466b2" stroke-linecap="round"></line><g fill="#51be95" color="#51be95" transform="translate(290.37890625 0) scale(0.58)"><svg width="50.0" height="50.0" x="0.0" y="0.0" viewBox="0 0 50 50"><path fill="currentColor" fill-rule="nonzero" d="M23.16.25v22.52H.65v26.61h26.61V26.86h22.52V.25H23.16zm0 45.03H4.74V26.86h18.42v18.42zm22.52-22.52H27.25V4.34h18.42v18.42h.01zM31.35 8.43h10.23v10.23H31.35V8.43zM8.83 30.95h10.23v10.23H8.83V30.95z"></path></svg></g></svg>